<svg width="26" height="25" viewBox="0 0 26 25" fill="none" xmlns="http://www.w3.org/2000/svg">
<path fill-rule="evenodd" clip-rule="evenodd" d="M1.48186 0.0428467C1.65774 0.0428467 1.8319 0.0774883 1.99439 0.144794C2.15688 0.212099 2.30452 0.31075 2.42888 0.435114C2.55325 0.559479 2.6519 0.70712 2.7192 0.86961C2.78651 1.0321 2.82115 1.20625 2.82115 1.38213V5.84642C2.8212 6.43774 2.98901 7.01691 3.30511 7.51666C3.6212 8.0164 4.0726 8.41621 4.60686 8.66963V1.38213C4.60686 1.02693 4.74797 0.686279 4.99913 0.435114C5.2503 0.18395 5.59095 0.0428467 5.94615 0.0428467C6.30135 0.0428467 6.642 0.18395 6.89317 0.435114C7.14433 0.686279 7.28544 1.02693 7.28544 1.38213V8.66963C7.8197 8.41621 8.2711 8.0164 8.58719 7.51666C8.90328 7.01691 9.0711 6.43774 9.07115 5.84642V1.38213C9.07115 1.02693 9.21225 0.686279 9.46342 0.435114C9.71458 0.18395 10.0552 0.0428467 10.4104 0.0428467C10.7656 0.0428467 11.1063 0.18395 11.3575 0.435114C11.6086 0.686279 11.7497 1.02693 11.7497 1.38213V5.84642C11.7496 7.07329 11.3607 8.26857 10.6388 9.26059C9.91691 10.2526 8.89922 10.9903 7.73186 11.3678V23.2143C7.73186 23.6879 7.54373 24.1421 7.20884 24.477C6.87395 24.8119 6.41975 25 5.94615 25C5.47255 25 5.01835 24.8119 4.68346 24.477C4.34857 24.1421 4.16044 23.6879 4.16044 23.2143V11.3696C2.99279 10.992 1.97489 10.254 1.25299 9.26165C0.531079 8.26927 0.142325 7.0736 0.142578 5.84642V1.38213C0.142578 1.02693 0.283681 0.686279 0.534846 0.435114C0.786011 0.18395 1.12666 0.0428467 1.48186 0.0428467ZM19.4283 0.0428467C16.264 0.0428467 14.1765 3.12678 14.1765 6.2732C14.1765 8.78035 15.5015 11.2482 17.6408 12.1482V23.2143C17.6408 23.6879 17.8289 24.1421 18.1638 24.477C18.4987 24.8119 18.9529 25 19.4265 25C19.9001 25 20.3543 24.8119 20.6892 24.477C21.0241 24.1421 21.2122 23.6879 21.2122 23.2143V12.1464C23.3551 11.2482 24.6801 8.78035 24.6801 6.27142C24.6801 3.12678 22.5908 0.0428467 19.4283 0.0428467Z" fill="#757575"/>
</svg>
