<svg width="26" height="25" viewBox="0 0 26 25" fill="none" xmlns="http://www.w3.org/2000/svg">
<path d="M16.6207 1.5625C19.2488 1.5625 21.1738 3.70313 21.1738 6.64062C21.1738 9.36719 19.6176 11.8891 17.077 14.1891C16.8165 14.4245 16.5514 14.6526 16.2816 14.8734L18.0254 23.5984C18.0661 23.8022 18.0519 24.0132 17.9842 24.2096C17.9165 24.4061 17.7978 24.5811 17.6402 24.7165C17.4826 24.852 17.2918 24.9431 17.0874 24.9806C16.883 25.0181 16.6723 25.0005 16.477 24.9297L12.7129 23.5609C12.6271 23.5299 12.5331 23.5299 12.4473 23.5609L8.6832 24.9297C8.48783 25.0005 8.27714 25.0181 8.07273 24.9806C7.86833 24.9431 7.67756 24.852 7.51998 24.7165C7.3624 24.5811 7.24368 24.4061 7.17599 24.2096C7.1083 24.0132 7.09407 23.8022 7.13477 23.5984L8.87695 14.8734C8.60589 14.6517 8.34019 14.4235 8.08008 14.1891C5.54414 11.8891 3.98633 9.36719 3.98633 6.64062C3.98633 3.70313 5.91133 1.5625 8.53945 1.5625C10.0441 1.5625 11.4191 2.19219 12.4051 3.23906L12.5801 3.43437L12.7551 3.23906C13.6864 2.24635 14.9633 1.64901 16.3223 1.57031L16.6207 1.5625ZM10.9629 16.3984L9.84102 22.0141L11.6457 21.3578C12.161 21.1708 12.7207 21.1431 13.252 21.2781L13.5145 21.3578L15.3176 22.0141L14.1957 16.4016C13.8832 16.6047 13.6202 16.7682 13.4066 16.8922L13.1426 17.0437C12.9701 17.1381 12.7767 17.1876 12.5801 17.1876C12.3835 17.1876 12.19 17.1381 12.0176 17.0437C11.7446 16.8914 11.4762 16.7309 11.2129 16.5625L10.9629 16.3984ZM16.6207 3.90625C15.2723 3.90625 14.1035 4.8125 13.7051 6.18594C13.3785 7.3125 11.7816 7.3125 11.4551 6.18594C11.0566 4.8125 9.88789 3.90625 8.53945 3.90625C7.26445 3.90625 6.33008 4.94531 6.33008 6.64062C6.33008 8.5625 7.5582 10.5531 9.65508 12.4516C10.4207 13.1437 11.2457 13.7734 12.0707 14.3234L12.5785 14.6516L12.6973 14.5781L13.0895 14.3234C13.9405 13.761 14.748 13.1353 15.5051 12.4516C17.602 10.5531 18.8301 8.56094 18.8301 6.64062C18.8301 4.94531 17.8957 3.90625 16.6207 3.90625Z" fill="white"/>
</svg>
