<svg width="28" height="26" viewBox="0 0 28 26" fill="none" xmlns="http://www.w3.org/2000/svg">
<path d="M22.1648 2.25874C23.0137 2.94135 23.5987 4.04393 23.8379 5.19851L23.9224 5.23318L26.5809 6.49442C26.7294 6.56453 26.8553 6.67669 26.9437 6.8177C27.0321 6.95871 27.0795 7.1227 27.0801 7.29036V23.7784C27.0791 23.9154 27.0472 24.0503 26.9869 24.1725C26.9266 24.2947 26.8395 24.4009 26.7325 24.4828C26.6254 24.5647 26.5013 24.62 26.3699 24.6445C26.2385 24.6689 26.1034 24.6618 25.9751 24.6237L18.6054 22.4905L9.84338 24.9677C9.68533 25.0125 9.51815 25.0107 9.36108 24.9624L1.69628 22.6225C1.51911 22.5692 1.36346 22.4586 1.25245 22.3073C1.14144 22.156 1.08099 21.972 1.08008 21.7826V4.99853C1.08008 4.41191 1.63648 3.99061 2.19158 4.15593L9.60418 6.37043L13.3716 5.18785C13.4236 5.17185 13.4764 5.16074 13.5302 5.15452C13.6758 4.27992 14.0827 3.43998 14.7652 2.62137C15.5751 1.64811 16.996 1.07749 18.3805 1.0095C19.817 0.938835 20.9142 1.25348 22.1635 2.2574M2.81298 6.17577V21.128L9.14398 23.0598V8.06496L2.81298 6.17577ZM13.4847 6.99438L10.8769 7.81165V22.8492L17.4614 20.9907V16.5977C17.4614 16.1124 17.8501 15.7191 18.3285 15.7191C18.8069 15.7191 19.1943 16.1124 19.1943 16.599V20.8347L25.3472 22.6145V7.84898L23.8912 7.1557C23.8669 7.30236 23.8353 7.4459 23.7963 7.58633C23.5146 8.60903 23.0403 9.5652 22.4001 10.4008L19.18 14.5245C19.0952 14.6329 18.9869 14.7195 18.8637 14.7775C18.7406 14.8355 18.6059 14.8632 18.4705 14.8584C18.335 14.8536 18.2026 14.8164 18.0836 14.7499C17.9646 14.6834 17.8624 14.5893 17.7851 14.4751L14.7756 10.0048C14.2781 9.29465 13.931 8.65648 13.7343 8.0903C13.6106 7.73595 13.5268 7.36825 13.4847 6.99438ZM18.4637 2.7667C17.5199 2.81336 16.5501 3.20266 16.0886 3.75596C15.5335 4.42257 15.2605 5.04653 15.2059 5.67848C15.1409 6.43975 15.1851 6.97705 15.3697 7.50901C15.5062 7.90231 15.7779 8.40094 16.1978 9.00223L18.5521 12.498L21.0351 9.3182C21.5363 8.66188 21.9077 7.91143 22.1284 7.10904C22.4404 5.98912 21.9698 4.34391 21.0884 3.6373C20.1849 2.91069 19.5024 2.7147 18.465 2.7667M18.6444 3.69596C20.0796 3.69596 21.2444 4.87587 21.2444 6.33176C21.2399 7.03473 20.9636 7.70713 20.4761 8.20133C19.9886 8.69553 19.3298 8.97111 18.6444 8.96756C17.2092 8.96756 16.0444 7.78765 16.0444 6.33176C16.0444 4.87587 17.2092 3.69596 18.6444 3.69596ZM18.6444 5.45316C18.5312 5.45246 18.419 5.47463 18.3141 5.5184C18.2093 5.56218 18.1139 5.6267 18.0334 5.70828C17.9529 5.78987 17.8888 5.88692 17.8449 5.9939C17.8009 6.10088 17.778 6.21568 17.7773 6.33176C17.7773 6.81706 18.166 7.21036 18.6444 7.21036C18.7576 7.21089 18.8697 7.18855 18.9745 7.14461C19.0793 7.10067 19.1746 7.03601 19.255 6.9543C19.3354 6.87259 19.3993 6.77544 19.4431 6.66839C19.4869 6.56135 19.5097 6.44651 19.5102 6.33043C19.5085 6.09646 19.4164 5.87273 19.2541 5.70829C19.0918 5.54384 18.8725 5.4521 18.6444 5.45316Z" fill="#757575"/>
<path d="M22.1648 2.25874C23.0137 2.94135 23.5987 4.04393 23.8379 5.19851L23.9224 5.23318L26.5809 6.49442C26.7294 6.56453 26.8553 6.67669 26.9437 6.8177C27.0321 6.95871 27.0795 7.1227 27.0801 7.29036V23.7784C27.0791 23.9154 27.0472 24.0503 26.9869 24.1725C26.9266 24.2947 26.8395 24.4009 26.7325 24.4828C26.6254 24.5647 26.5013 24.62 26.3699 24.6445C26.2385 24.6689 26.1034 24.6618 25.9751 24.6237L18.6054 22.4905L9.84338 24.9677C9.68533 25.0125 9.51815 25.0107 9.36108 24.9624L1.69628 22.6225C1.51911 22.5692 1.36346 22.4586 1.25245 22.3073C1.14144 22.156 1.08099 21.972 1.08008 21.7826V4.99853C1.08008 4.41191 1.63648 3.99061 2.19158 4.15593L9.60418 6.37043L13.3716 5.18785C13.4236 5.17185 13.4764 5.16074 13.5302 5.15452C13.6758 4.27992 14.0827 3.43998 14.7652 2.62137C15.5751 1.64811 16.996 1.07749 18.3805 1.0095C19.817 0.938835 20.9142 1.25348 22.1635 2.2574M18.4637 2.7667C17.5199 2.81336 16.5501 3.20266 16.0886 3.75596C15.5335 4.42257 15.2605 5.04653 15.2059 5.67848C15.1409 6.43975 15.1851 6.97705 15.3697 7.50901C15.5062 7.90231 15.7779 8.40094 16.1978 9.00223L18.5521 12.498L21.0351 9.3182C21.5363 8.66188 21.9077 7.91143 22.1284 7.10904C22.4404 5.98912 21.9698 4.34391 21.0884 3.6373C20.1849 2.91069 19.5024 2.7147 18.465 2.7667M2.81298 6.17577V21.128L9.14398 23.0598V8.06496L2.81298 6.17577ZM13.4847 6.99438L10.8769 7.81165V22.8492L17.4614 20.9907V16.5977C17.4614 16.1124 17.8501 15.7191 18.3285 15.7191C18.8069 15.7191 19.1943 16.1124 19.1943 16.599V20.8347L25.3472 22.6145V7.84898L23.8912 7.1557C23.8669 7.30236 23.8353 7.4459 23.7963 7.58633C23.5146 8.60903 23.0403 9.5652 22.4001 10.4008L19.18 14.5245C19.0952 14.6329 18.9869 14.7195 18.8637 14.7775C18.7406 14.8355 18.6059 14.8632 18.4705 14.8584C18.335 14.8536 18.2026 14.8164 18.0836 14.7499C17.9646 14.6834 17.8624 14.5893 17.7851 14.4751L14.7756 10.0048C14.2781 9.29465 13.931 8.65648 13.7343 8.0903C13.6106 7.73595 13.5268 7.36825 13.4847 6.99438ZM18.6444 3.69596C20.0796 3.69596 21.2444 4.87587 21.2444 6.33176C21.2399 7.03473 20.9636 7.70713 20.4761 8.20133C19.9886 8.69553 19.3298 8.97111 18.6444 8.96756C17.2092 8.96756 16.0444 7.78765 16.0444 6.33176C16.0444 4.87587 17.2092 3.69596 18.6444 3.69596ZM18.6444 5.45316C18.5312 5.45246 18.419 5.47463 18.3141 5.5184C18.2093 5.56218 18.1139 5.6267 18.0334 5.70828C17.9529 5.78987 17.8888 5.88692 17.8449 5.9939C17.8009 6.10088 17.778 6.21568 17.7773 6.33176C17.7773 6.81706 18.166 7.21036 18.6444 7.21036C18.7576 7.21089 18.8697 7.18855 18.9745 7.14461C19.0793 7.10067 19.1746 7.03601 19.255 6.9543C19.3354 6.87259 19.3993 6.77544 19.4431 6.66839C19.4869 6.56135 19.5097 6.44651 19.5102 6.33043C19.5085 6.09646 19.4164 5.87273 19.2541 5.70829C19.0918 5.54384 18.8725 5.4521 18.6444 5.45316Z" stroke="#757575" stroke-width="0.5"/>
</svg>
