<svg width="26" height="25" viewBox="0 0 26 25" fill="none" xmlns="http://www.w3.org/2000/svg">
<path d="M9.45509 15.6247L15.7051 9.37467M11.5384 6.24967L12.0207 5.69133C12.9976 4.71459 14.3225 4.16592 15.7039 4.16602C17.0853 4.16611 18.4101 4.71497 19.3869 5.69185C20.3636 6.66874 20.9123 7.99362 20.9122 9.37504C20.9121 10.7565 20.3632 12.0813 19.3863 13.058L18.8301 13.5413M13.6218 18.7497L13.2082 19.3059C12.2197 20.2827 10.886 20.8305 9.49623 20.8305C8.10652 20.8305 6.7728 20.2827 5.78426 19.3059C5.29688 18.8244 4.90992 18.2509 4.64582 17.6187C4.38172 16.9866 4.24573 16.3082 4.24573 15.6231C4.24573 14.938 4.38172 14.2597 4.64582 13.6275C4.90992 12.9953 5.29688 12.4218 5.78426 11.9403L6.33009 11.458" stroke="#757575" stroke-width="2" stroke-linecap="round" stroke-linejoin="round"/>
</svg>
