<svg width="20" height="20" viewBox="0 0 20 20" fill="none" xmlns="http://www.w3.org/2000/svg">
<path d="M9.62903 17.2148C10.5893 17.2148 11.5402 17.0257 12.4274 16.6582C13.3146 16.2907 14.1207 15.7521 14.7997 15.0731C15.4788 14.394 16.0174 13.5879 16.3849 12.7007C16.7524 11.8135 16.9415 10.8626 16.9415 9.90234C16.9415 8.94205 16.7524 7.99116 16.3849 7.10397C16.0174 6.21678 15.4788 5.41065 14.7997 4.73163C14.1207 4.0526 13.3146 3.51396 12.4274 3.14647C11.5402 2.77899 10.5893 2.58984 9.62903 2.58984C7.68963 2.58984 5.82967 3.36027 4.45831 4.73163C3.08695 6.10298 2.31653 7.96295 2.31653 9.90234C2.31653 11.8417 3.08695 13.7017 4.45831 15.0731C5.82967 16.4444 7.68963 17.2148 9.62903 17.2148ZM18.5665 9.90234C18.5665 14.8383 14.565 18.8398 9.62903 18.8398C4.69309 18.8398 0.691528 14.8383 0.691528 9.90234C0.691528 4.96641 4.69309 0.964844 9.62903 0.964844C14.565 0.964844 18.5665 4.96641 18.5665 9.90234ZM12.0665 13.4887L8.81653 10.2387V4.62109H10.4415V9.56597L13.2154 12.3398L12.0665 13.4887Z" fill="#757575" stroke="#757575" stroke-width="0.2"/>
</svg>
