<svg width="19" height="19" viewBox="0 0 19 19" fill="none" xmlns="http://www.w3.org/2000/svg">
<path d="M6.45509 12.6247L12.7051 6.37467M8.53842 3.24967L9.02071 2.69133C9.99759 1.71459 11.3225 1.16592 12.7039 1.16602C14.0853 1.16611 15.4101 1.71497 16.3869 2.69185C17.3636 3.66874 17.9123 4.99362 17.9122 6.37504C17.9121 7.75646 17.3632 9.08126 16.3863 10.058L15.8301 10.5413M10.6218 15.7497L10.2082 16.3059C9.21967 17.2827 7.88595 17.8305 6.49623 17.8305C5.10652 17.8305 3.7728 17.2827 2.78426 16.3059C2.29688 15.8244 1.90992 15.2509 1.64582 14.6187C1.38172 13.9866 1.24573 13.3082 1.24573 12.6231C1.24573 11.938 1.38172 11.2597 1.64582 10.6275C1.90992 9.99529 2.29688 9.42182 2.78426 8.94029L3.33009 8.458" stroke="#757575" stroke-width="2" stroke-linecap="round" stroke-linejoin="round"/>
</svg>
