<svg width="17" height="22" viewBox="0 0 17 22" fill="none" xmlns="http://www.w3.org/2000/svg">
<path d="M8.43722 11.2326C7.28811 11.2326 6.34793 10.2924 6.34793 9.14328C6.34793 7.99417 7.28811 7.05399 8.43722 7.05399C9.58633 7.05399 10.5265 7.99417 10.5265 9.14328C10.5265 10.2924 9.58633 11.2326 8.43722 11.2326ZM14.7051 9.3522C14.7051 5.56015 11.9368 2.87542 8.43722 2.87542C4.93767 2.87542 2.16936 5.56015 2.16936 9.3522C2.16936 11.7967 4.20642 15.0351 8.43722 18.9002C12.668 15.0351 14.7051 11.7967 14.7051 9.3522ZM8.43722 0.786133C12.8247 0.786133 16.7944 4.14988 16.7944 9.3522C16.7944 12.8204 14.0052 16.9259 8.43722 21.679C2.86927 16.9259 0.0800781 12.8204 0.0800781 9.3522C0.0800781 4.14988 4.04972 0.786133 8.43722 0.786133Z" fill="#757575"/>
</svg>
